<?xml version="1.0" encoding="UTF-8"?>
<svg xmlns="http://www.w3.org/2000/svg" viewBox="0 0 512 512" role="img" aria-labelledby="title desc">
  <title id="title">Repo Lore light app icon</title>
  <desc id="desc">The connected purple-to-cyan Repo Lore glyph on a white rounded-square background.</desc>
  <defs>
    <linearGradient id="glyph-gradient" x1="151" y1="130" x2="382" y2="392" gradientUnits="userSpaceOnUse">
      <stop offset="0" stop-color="#C977EA"/>
      <stop offset="0.47" stop-color="#8658ED"/>
      <stop offset="1" stop-color="#16B9DE"/>
    </linearGradient>
  </defs>
  <rect x="20" y="20" width="472" height="472" rx="96" fill="#FFFFFF"/>
  <rect x="21" y="21" width="470" height="470" rx="95" fill="none" stroke="#D8DEE8" stroke-width="2"/>
  <g fill="none" stroke="url(#glyph-gradient)" stroke-width="22" stroke-linecap="round" stroke-linejoin="round">
    <path d="M171 132h104c58 0 95 39 95 90s-34 82-84 88l82 77"/>
    <path d="M171 180h101c29 0 47 19 47 43s-18 41-47 41h-25c-23 0-36 22-20 40l79 82"/>
    <path d="M171 180v206"/>
  </g>
  <g fill="url(#glyph-gradient)">
    <circle cx="171" cy="132" r="20"/>
    <circle cx="171" cy="180" r="18"/>
    <circle cx="171" cy="273" r="17"/>
    <circle cx="171" cy="386" r="20"/>
    <circle cx="306" cy="386" r="19"/>
    <circle cx="368" cy="387" r="20"/>
  </g>
</svg>
